<?xml version="1.0" encoding="UTF-8" standalone="no"?>
<svg
   xmlns:dc="http://purl.org/dc/elements/1.1/"
   xmlns:cc="http://creativecommons.org/ns#"
   xmlns:rdf="http://www.w3.org/1999/02/22-rdf-syntax-ns#"
   xmlns:svg="http://www.w3.org/2000/svg"
   xmlns="http://www.w3.org/2000/svg"
   xmlns:sodipodi="http://sodipodi.sourceforge.net/DTD/sodipodi-0.dtd"
   xmlns:inkscape="http://www.inkscape.org/namespaces/inkscape"
   enable-background="new 0 0 65 65"
   height="65px"
   version="1.1"
   viewBox="0 0 65 65"
   width="65px"
   xml:space="preserve"
   id="svg2"
   inkscape:version="0.91 r13725"
   sodipodi:docname="logo.2.svg"><metadata
     id="metadata58"><rdf:RDF><cc:Work
         rdf:about=""><dc:format>image/svg+xml</dc:format><dc:type
           rdf:resource="http://purl.org/dc/dcmitype/StillImage" /></cc:Work></rdf:RDF></metadata><defs
     id="defs56" /><sodipodi:namedview
     pagecolor="#ffffff"
     bordercolor="#666666"
     borderopacity="1"
     objecttolerance="10"
     gridtolerance="10"
     guidetolerance="10"
     inkscape:pageopacity="0"
     inkscape:pageshadow="2"
     inkscape:window-width="1920"
     inkscape:window-height="1043"
     id="namedview54"
     showgrid="false"
     inkscape:zoom="3.6307692"
     inkscape:cx="-19.417373"
     inkscape:cy="32.5"
     inkscape:window-x="0"
     inkscape:window-y="18"
     inkscape:window-maximized="0"
     inkscape:current-layer="svg2" /><g
     id="Layer_2"
     style="fill:#ffffff"
     transform="matrix(0.90066685,0,0,0.90066685,6.059322,0.29799944)"><path
       d="M 25,64 7,64 C 6.448,64 6,63.553 6,63 L 6,44 c 0,-0.553 0.448,-1 1,-1 l 18,0 c 0.552,0 1,0.447 1,1 l 0,19 c 0,0.553 -0.448,1 -1,1 z M 8,62 24,62 24,45 8,45 8,62 Z"
       id="path5"
       style="fill:#ffffff"
       inkscape:connector-curvature="0" /><path
       d="m 21,45 -9,0 c -0.552,0 -1,-0.447 -1,-1 l 0,-5 c 0,-0.553 0.448,-1 1,-1 l 9,0 c 0.552,0 1,0.447 1,1 l 0,5 c 0,0.553 -0.448,1 -1,1 z m -8,-2 7,0 0,-3 -7,0 0,3 z"
       id="path7"
       style="fill:#ffffff"
       inkscape:connector-curvature="0" /><path
       d="m 60,64 -13,0 c -0.552,0 -1,-0.447 -1,-1 l 0,-33 c 0,-0.553 0.448,-1 1,-1 l 13,0 c 0.552,0 1,0.447 1,1 l 0,33 c 0,0.553 -0.448,1 -1,1 z m -12,-2 11,0 0,-31 -11,0 0,31 z"
       id="path9"
       style="fill:#ffffff"
       inkscape:connector-curvature="0" /><g
       id="g11"
       style="fill:#ffffff"><path
         d="m 47,64 -22,0 c -0.552,0 -1,-0.447 -1,-1 l 0,-41 c 0,-0.553 0.448,-1 1,-1 l 22,0 c 0.552,0 1,0.447 1,1 l 0,41 c 0,0.553 -0.448,1 -1,1 z m -21,-2 20,0 0,-39 -20,0 0,39 z"
         id="path13"
         style="fill:#ffffff"
         inkscape:connector-curvature="0" /></g><g
       id="g15"
       style="fill:#ffffff"><path
         d="m 43,23 -14,0 c -0.552,0 -1,-0.447 -1,-1 l 0,-6 c 0,-0.553 0.448,-1 1,-1 l 14,0 c 0.552,0 1,0.447 1,1 l 0,6 c 0,0.553 -0.448,1 -1,1 z m -13,-2 12,0 0,-4 -12,0 0,4 z"
         id="path17"
         style="fill:#ffffff"
         inkscape:connector-curvature="0" /></g><g
       id="g19"
       style="fill:#ffffff"><path
         d="m 41,17 -10,0 c -0.552,0 -1,-0.447 -1,-1 l 0,-6 c 0,-0.553 0.448,-1 1,-1 l 10,0 c 0.552,0 1,0.447 1,1 l 0,6 c 0,0.553 -0.448,1 -1,1 z m -9,-2 8,0 0,-4 -8,0 0,4 z"
         id="path21"
         style="fill:#ffffff"
         inkscape:connector-curvature="0" /></g><g
       id="g23"
       style="fill:#ffffff"><rect
         height="6"
         width="0"
         x="36"
         y="4"
         id="rect25"
         style="fill:#ffffff" /><path
         d="m 36,11 c -0.552,0 -1,-0.447 -1,-1 l 0,-6 c 0,-0.553 0.448,-1 1,-1 0.552,0 1,0.447 1,1 l 0,6 c 0,0.553 -0.448,1 -1,1 z"
         id="path27"
         style="fill:#ffffff"
         inkscape:connector-curvature="0" /></g><path
       d="m 34.5,36 -4,0 C 30.224,36 30,35.776 30,35.5 l 0,-8 C 30,27.224 30.224,27 30.5,27 l 4,0 c 0.276,0 0.5,0.224 0.5,0.5 l 0,8 c 0,0.276 -0.224,0.5 -0.5,0.5 z m -3.5,-1 3,0 0,-7 -3,0 0,7 z"
       id="path29"
       style="fill:#ffffff"
       inkscape:connector-curvature="0" /><path
       d="m 56.5,39 -6,0 C 50.224,39 50,38.776 50,38.5 l 0,-3 C 50,35.224 50.224,35 50.5,35 l 6,0 c 0.276,0 0.5,0.224 0.5,0.5 l 0,3 c 0,0.276 -0.224,0.5 -0.5,0.5 z m -5.5,-1 5,0 0,-2 -5,0 0,2 z"
       id="path31"
       style="fill:#ffffff"
       inkscape:connector-curvature="0" /><path
       d="m 56.5,45 -6,0 C 50.224,45 50,44.776 50,44.5 l 0,-3 C 50,41.224 50.224,41 50.5,41 l 6,0 c 0.276,0 0.5,0.224 0.5,0.5 l 0,3 c 0,0.276 -0.224,0.5 -0.5,0.5 z m -5.5,-1 5,0 0,-2 -5,0 0,2 z"
       id="path33"
       style="fill:#ffffff"
       inkscape:connector-curvature="0" /><path
       d="m 56.5,51 -6,0 C 50.224,51 50,50.776 50,50.5 l 0,-3 C 50,47.224 50.224,47 50.5,47 l 6,0 c 0.276,0 0.5,0.224 0.5,0.5 l 0,3 c 0,0.276 -0.224,0.5 -0.5,0.5 z m -5.5,-1 5,0 0,-2 -5,0 0,2 z"
       id="path35"
       style="fill:#ffffff"
       inkscape:connector-curvature="0" /><path
       d="m 56.5,57 -6,0 C 50.224,57 50,56.776 50,56.5 l 0,-3 C 50,53.224 50.224,53 50.5,53 l 6,0 c 0.276,0 0.5,0.224 0.5,0.5 l 0,3 c 0,0.276 -0.224,0.5 -0.5,0.5 z m -5.5,-1 5,0 0,-2 -5,0 0,2 z"
       id="path37"
       style="fill:#ffffff"
       inkscape:connector-curvature="0" /><path
       d="m 41.5,36 -4,0 C 37.224,36 37,35.776 37,35.5 l 0,-8 C 37,27.224 37.224,27 37.5,27 l 4,0 c 0.276,0 0.5,0.224 0.5,0.5 l 0,8 c 0,0.276 -0.224,0.5 -0.5,0.5 z m -3.5,-1 3,0 0,-7 -3,0 0,7 z"
       id="path39"
       style="fill:#ffffff"
       inkscape:connector-curvature="0" /><path
       d="m 14.5,63 -2,0 C 12.224,63 12,62.776 12,62.5 l 0,-15 C 12,47.224 12.224,47 12.5,47 l 2,0 c 0.276,0 0.5,0.224 0.5,0.5 l 0,15 c 0,0.276 -0.224,0.5 -0.5,0.5 z m -1.5,-1 1,0 0,-14 -1,0 0,14 z"
       id="path41"
       style="fill:#ffffff"
       inkscape:connector-curvature="0" /><path
       d="m 19.5,63 -2,0 C 17.224,63 17,62.776 17,62.5 l 0,-15 C 17,47.224 17.224,47 17.5,47 l 2,0 c 0.276,0 0.5,0.224 0.5,0.5 l 0,15 c 0,0.276 -0.224,0.5 -0.5,0.5 z m -1.5,-1 1,0 0,-14 -1,0 0,14 z"
       id="path43"
       style="fill:#ffffff"
       inkscape:connector-curvature="0" /><path
       d="m 34.5,47 -4,0 C 30.224,47 30,46.776 30,46.5 l 0,-8 C 30,38.224 30.224,38 30.5,38 l 4,0 c 0.276,0 0.5,0.224 0.5,0.5 l 0,8 c 0,0.276 -0.224,0.5 -0.5,0.5 z m -3.5,-1 3,0 0,-7 -3,0 0,7 z"
       id="path45"
       style="fill:#ffffff"
       inkscape:connector-curvature="0" /><path
       d="m 41.5,47 -4,0 C 37.224,47 37,46.776 37,46.5 l 0,-8 C 37,38.224 37.224,38 37.5,38 l 4,0 c 0.276,0 0.5,0.224 0.5,0.5 l 0,8 c 0,0.276 -0.224,0.5 -0.5,0.5 z m -3.5,-1 3,0 0,-7 -3,0 0,7 z"
       id="path47"
       style="fill:#ffffff"
       inkscape:connector-curvature="0" /><path
       d="m 34.5,58 -4,0 C 30.224,58 30,57.776 30,57.5 l 0,-8 C 30,49.224 30.224,49 30.5,49 l 4,0 c 0.276,0 0.5,0.224 0.5,0.5 l 0,8 c 0,0.276 -0.224,0.5 -0.5,0.5 z m -3.5,-1 3,0 0,-7 -3,0 0,7 z"
       id="path49"
       style="fill:#ffffff"
       inkscape:connector-curvature="0" /><path
       d="m 41.5,58 -4,0 C 37.224,58 37,57.776 37,57.5 l 0,-8 C 37,49.224 37.224,49 37.5,49 l 4,0 c 0.276,0 0.5,0.224 0.5,0.5 l 0,8 c 0,0.276 -0.224,0.5 -0.5,0.5 z m -3.5,-1 3,0 0,-7 -3,0 0,7 z"
       id="path51"
       style="fill:#ffffff"
       inkscape:connector-curvature="0" /></g><g
     id="Layer_3" /></svg>