<?xml version="1.0" encoding="UTF-8" standalone="no"?>
<svg
   xmlns:dc="http://purl.org/dc/elements/1.1/"
   xmlns:cc="http://creativecommons.org/ns#"
   xmlns:rdf="http://www.w3.org/1999/02/22-rdf-syntax-ns#"
   xmlns:svg="http://www.w3.org/2000/svg"
   xmlns="http://www.w3.org/2000/svg"
   xmlns:sodipodi="http://sodipodi.sourceforge.net/DTD/sodipodi-0.dtd"
   xmlns:inkscape="http://www.inkscape.org/namespaces/inkscape"
   enable-background="new 0 0 65 65"
   height="600"
   version="1.1"
   viewBox="0 0 562.49998 562.49998"
   width="600"
   xml:space="preserve"
   id="svg2"
   inkscape:version="0.92.0 r"
   sodipodi:docname="logo.epr.original.svg"><metadata
     id="metadata58"><rdf:RDF><cc:Work
         rdf:about=""><dc:format>image/svg+xml</dc:format><dc:type
           rdf:resource="http://purl.org/dc/dcmitype/StillImage" /><dc:title /></cc:Work></rdf:RDF></metadata><defs
     id="defs56" /><sodipodi:namedview
     pagecolor="#ffffff"
     bordercolor="#666666"
     borderopacity="1"
     objecttolerance="10"
     gridtolerance="10"
     guidetolerance="10"
     inkscape:pageopacity="0"
     inkscape:pageshadow="2"
     inkscape:window-width="958"
     inkscape:window-height="1043"
     id="namedview54"
     showgrid="false"
     inkscape:zoom="0.64183539"
     inkscape:cx="379.69621"
     inkscape:cy="176.90311"
     inkscape:window-x="960"
     inkscape:window-y="18"
     inkscape:window-maximized="0"
     inkscape:current-layer="svg2" /><rect
     style="opacity:1;fill:#f4f4f4;fill-opacity:1;stroke:#9f2323;stroke-width:5.59487963;stroke-miterlimit:4;stroke-dasharray:none;stroke-opacity:1"
     id="rect4518"
     width="1037.4391"
     height="663.20837"
     x="-237.46956"
     y="-30.325045" /><g
     id="Layer_2"
     style="fill:#000000"
     transform="matrix(5.3357461,0,0,5.3357461,102.5025,101.08904)"
     inkscape:export-xdpi="59.911896"
     inkscape:export-ydpi="59.911896"><path
       d="M 25,64 H 7 C 6.448,64 6,63.553 6,63 V 44 c 0,-0.553 0.448,-1 1,-1 h 18 c 0.552,0 1,0.447 1,1 v 19 c 0,0.553 -0.448,1 -1,1 z M 8,62 H 24 V 45 H 8 Z"
       id="path5"
       style="fill:#000000"
       inkscape:connector-curvature="0" /><path
       d="m 21,45 h -9 c -0.552,0 -1,-0.447 -1,-1 v -5 c 0,-0.553 0.448,-1 1,-1 h 9 c 0.552,0 1,0.447 1,1 v 5 c 0,0.553 -0.448,1 -1,1 z m -8,-2 h 7 v -3 h -7 z"
       id="path7"
       style="fill:#000000"
       inkscape:connector-curvature="0" /><path
       d="M 60,64 H 47 c -0.552,0 -1,-0.447 -1,-1 V 30 c 0,-0.553 0.448,-1 1,-1 h 13 c 0.552,0 1,0.447 1,1 v 33 c 0,0.553 -0.448,1 -1,1 z M 48,62 H 59 V 31 H 48 Z"
       id="path9"
       style="fill:#000000"
       inkscape:connector-curvature="0" /><g
       id="g11"
       style="fill:#000000"><path
         d="M 47,64 H 25 c -0.552,0 -1,-0.447 -1,-1 V 22 c 0,-0.553 0.448,-1 1,-1 h 22 c 0.552,0 1,0.447 1,1 v 41 c 0,0.553 -0.448,1 -1,1 z M 26,62 H 46 V 23 H 26 Z"
         id="path13"
         style="fill:#000000"
         inkscape:connector-curvature="0" /></g><g
       id="g15"
       style="fill:#000000"><path
         d="M 43,23 H 29 c -0.552,0 -1,-0.447 -1,-1 v -6 c 0,-0.553 0.448,-1 1,-1 h 14 c 0.552,0 1,0.447 1,1 v 6 c 0,0.553 -0.448,1 -1,1 z M 30,21 H 42 V 17 H 30 Z"
         id="path17"
         style="fill:#000000"
         inkscape:connector-curvature="0" /></g><g
       id="g19"
       style="fill:#000000"><path
         d="M 41,17 H 31 c -0.552,0 -1,-0.447 -1,-1 v -6 c 0,-0.553 0.448,-1 1,-1 h 10 c 0.552,0 1,0.447 1,1 v 6 c 0,0.553 -0.448,1 -1,1 z m -9,-2 h 8 v -4 h -8 z"
         id="path21"
         style="fill:#000000"
         inkscape:connector-curvature="0" /></g><g
       id="g23"
       style="fill:#000000"><rect
         height="6"
         width="0"
         x="36"
         y="4"
         id="rect25"
         style="fill:#000000" /><path
         d="m 36,11 c -0.552,0 -1,-0.447 -1,-1 V 4 c 0,-0.553 0.448,-1 1,-1 0.552,0 1,0.447 1,1 v 6 c 0,0.553 -0.448,1 -1,1 z"
         id="path27"
         style="fill:#000000"
         inkscape:connector-curvature="0" /></g><path
       d="m 34.5,36 h -4 C 30.224,36 30,35.776 30,35.5 v -8 C 30,27.224 30.224,27 30.5,27 h 4 c 0.276,0 0.5,0.224 0.5,0.5 v 8 C 35,35.776 34.776,36 34.5,36 Z M 31,35 h 3 v -7 h -3 z"
       id="path29"
       style="fill:#000000"
       inkscape:connector-curvature="0" /><path
       d="m 56.5,39 h -6 C 50.224,39 50,38.776 50,38.5 v -3 C 50,35.224 50.224,35 50.5,35 h 6 c 0.276,0 0.5,0.224 0.5,0.5 v 3 C 57,38.776 56.776,39 56.5,39 Z M 51,38 h 5 v -2 h -5 z"
       id="path31"
       style="fill:#000000"
       inkscape:connector-curvature="0" /><path
       d="m 56.5,45 h -6 C 50.224,45 50,44.776 50,44.5 v -3 C 50,41.224 50.224,41 50.5,41 h 6 c 0.276,0 0.5,0.224 0.5,0.5 v 3 C 57,44.776 56.776,45 56.5,45 Z M 51,44 h 5 v -2 h -5 z"
       id="path33"
       style="fill:#000000"
       inkscape:connector-curvature="0" /><path
       d="m 56.5,51 h -6 C 50.224,51 50,50.776 50,50.5 v -3 C 50,47.224 50.224,47 50.5,47 h 6 c 0.276,0 0.5,0.224 0.5,0.5 v 3 C 57,50.776 56.776,51 56.5,51 Z M 51,50 h 5 v -2 h -5 z"
       id="path35"
       style="fill:#000000"
       inkscape:connector-curvature="0" /><path
       d="m 56.5,57 h -6 C 50.224,57 50,56.776 50,56.5 v -3 C 50,53.224 50.224,53 50.5,53 h 6 c 0.276,0 0.5,0.224 0.5,0.5 v 3 C 57,56.776 56.776,57 56.5,57 Z M 51,56 h 5 v -2 h -5 z"
       id="path37"
       style="fill:#000000"
       inkscape:connector-curvature="0" /><path
       d="m 41.5,36 h -4 C 37.224,36 37,35.776 37,35.5 v -8 C 37,27.224 37.224,27 37.5,27 h 4 c 0.276,0 0.5,0.224 0.5,0.5 v 8 C 42,35.776 41.776,36 41.5,36 Z M 38,35 h 3 v -7 h -3 z"
       id="path39"
       style="fill:#000000"
       inkscape:connector-curvature="0" /><path
       d="m 14.5,63 h -2 C 12.224,63 12,62.776 12,62.5 v -15 C 12,47.224 12.224,47 12.5,47 h 2 c 0.276,0 0.5,0.224 0.5,0.5 v 15 C 15,62.776 14.776,63 14.5,63 Z M 13,62 h 1 V 48 h -1 z"
       id="path41"
       style="fill:#000000"
       inkscape:connector-curvature="0" /><path
       d="m 19.5,63 h -2 C 17.224,63 17,62.776 17,62.5 v -15 C 17,47.224 17.224,47 17.5,47 h 2 c 0.276,0 0.5,0.224 0.5,0.5 v 15 C 20,62.776 19.776,63 19.5,63 Z M 18,62 h 1 V 48 h -1 z"
       id="path43"
       style="fill:#000000"
       inkscape:connector-curvature="0" /><path
       d="m 34.5,47 h -4 C 30.224,47 30,46.776 30,46.5 v -8 C 30,38.224 30.224,38 30.5,38 h 4 c 0.276,0 0.5,0.224 0.5,0.5 v 8 C 35,46.776 34.776,47 34.5,47 Z M 31,46 h 3 v -7 h -3 z"
       id="path45"
       style="fill:#000000"
       inkscape:connector-curvature="0" /><path
       d="m 41.5,47 h -4 C 37.224,47 37,46.776 37,46.5 v -8 C 37,38.224 37.224,38 37.5,38 h 4 c 0.276,0 0.5,0.224 0.5,0.5 v 8 C 42,46.776 41.776,47 41.5,47 Z M 38,46 h 3 v -7 h -3 z"
       id="path47"
       style="fill:#000000"
       inkscape:connector-curvature="0" /><path
       d="m 34.5,58 h -4 C 30.224,58 30,57.776 30,57.5 v -8 C 30,49.224 30.224,49 30.5,49 h 4 c 0.276,0 0.5,0.224 0.5,0.5 v 8 C 35,57.776 34.776,58 34.5,58 Z M 31,57 h 3 v -7 h -3 z"
       id="path49"
       style="fill:#000000"
       inkscape:connector-curvature="0" /><path
       d="m 41.5,58 h -4 C 37.224,58 37,57.776 37,57.5 v -8 C 37,49.224 37.224,49 37.5,49 h 4 c 0.276,0 0.5,0.224 0.5,0.5 v 8 C 42,57.776 41.776,58 41.5,58 Z M 38,57 h 3 v -7 h -3 z"
       id="path51"
       style="fill:#000000"
       inkscape:connector-curvature="0" /></g><g
     id="Layer_3"
     transform="translate(0,497.49998)" /><text
     xml:space="preserve"
     style="font-style:normal;font-weight:normal;font-size:37.5px;line-height:23.4375px;font-family:sans-serif;letter-spacing:0px;word-spacing:0px;fill:#000000;fill-opacity:1;stroke:none;stroke-width:0.93749994px;stroke-linecap:butt;stroke-linejoin:miter;stroke-opacity:1"
     x="278.99481"
     y="493.84918"
     id="text4510"
     inkscape:export-xdpi="59.911896"
     inkscape:export-ydpi="59.911896"><tspan
       sodipodi:role="line"
       id="tspan4508"
       x="285.87958"
       y="493.84918"
       style="font-style:normal;font-variant:normal;font-weight:normal;font-stretch:normal;font-size:50px;line-height:47.8125px;font-family:'Gill Sans Bold';-inkscape-font-specification:'Gill Sans Bold, ';text-align:center;text-anchor:middle;stroke-width:0.93749994px"
       dx="0.36000001">Extended Producer </tspan><tspan
       sodipodi:role="line"
       x="278.99481"
       y="541.66168"
       style="font-style:normal;font-variant:normal;font-weight:normal;font-stretch:normal;font-size:50px;line-height:47.8125px;font-family:'Gill Sans Bold';-inkscape-font-specification:'Gill Sans Bold, ';text-align:center;text-anchor:middle;stroke-width:0.93749994px"
       id="tspan4512">Responsibility</tspan></text>
<text
     xml:space="preserve"
     style="font-style:normal;font-weight:normal;font-size:37.5px;line-height:23.4375px;font-family:sans-serif;letter-spacing:0px;word-spacing:0px;fill:#666666;fill-opacity:1;stroke:none;stroke-width:0.93749994px;stroke-linecap:butt;stroke-linejoin:miter;stroke-opacity:1"
     x="111.5853"
     y="98.011742"
     id="text4516"
     inkscape:export-xdpi="59.911896"
     inkscape:export-ydpi="59.911896"><tspan
       sodipodi:role="line"
       id="tspan4514"
       x="111.5853"
       y="98.011742"
       style="font-style:normal;font-variant:normal;font-weight:normal;font-stretch:normal;font-size:70px;font-family:'Erbar Neo Mini D';-inkscape-font-specification:'Erbar Neo Mini D';fill:#666666;stroke-width:0.93749994px">EPR Central</tspan></text>
</svg>